# xmcd
#
# Track frame offsets: 
#        182
#        16682
#        35457
#        57160
#        76850
#        97395
#        112805
#        130567
#
# Disc length: 1965 seconds
#
# Revision: 4
# Processed by: cddbd v1.5.2PL0 Copyright (c) Steve Scherf et al.
# Submitted via: ExactAudioCopy v1.0b3
#
DISCID=5507ab08
DTITLE=Gloria Scott - What Am I Gonna Do
DYEAR=1974
DGENRE=Soul
TTITLE0=What Am I Gonna Do
TTITLE1=It's Better To Have No Love
TTITLE2=I Think Of You
TTITLE3=Love Me, Love Me, Love Me, Or Leave Me, Leave Me, Leave Me
TTITLE4=I Just Couldn't Take A Goodbye
TTITLE5=That's What You Say (Everytime You're Near Me)
TTITLE6=(A Case Of) Too Much Lovemakin'
TTITLE7=Help Me Get Off This Merry-Go-Round
EXTD=YEAR: 1974
EXTT0=
EXTT1=
EXTT2=
EXTT3=
EXTT4=
EXTT5=
EXTT6=
EXTT7=
PLAYORDER=
